<svg width="17" height="21" viewBox="0 0 17 21" fill="none" xmlns="http://www.w3.org/2000/svg">
<path d="M14.1143 19.6976C13.0256 20.753 11.8368 20.5864 10.6925 20.0864C9.48159 19.5754 8.37061 19.5531 7.093 20.0864C5.4932 20.7752 4.64886 20.5752 3.69343 19.6976C-1.72811 14.1094 -0.928211 5.59936 5.22657 5.28828C6.72638 5.36605 7.77069 6.1104 8.64836 6.17706C9.9593 5.91043 11.2147 5.14386 12.6145 5.24385C14.2921 5.37716 15.5586 6.04374 16.3918 7.24359C12.9256 9.32111 13.7477 13.8872 16.9251 15.1648C16.2918 16.8313 15.4697 18.4866 14.1032 19.7087L14.1143 19.6976ZM8.53726 5.22163C8.37062 2.74416 10.3815 0.699975 12.6923 0.5C13.0145 3.3663 10.0926 5.49937 8.53726 5.22163Z" fill="#292A2C"/>
</svg>
