<svg width="169" height="236" viewBox="0 0 169 236" fill="none" xmlns="http://www.w3.org/2000/svg">
<path fill-rule="evenodd" clip-rule="evenodd" d="M258.517 121.248V121.248L259.739 123.024L260.922 124.833L262.066 126.672L263.167 128.542L264.223 130.44L265.232 132.365L266.193 134.317L267.104 136.294L267.963 138.294L268.769 140.316L269.52 142.358L270.215 144.419L270.853 146.498L271.434 148.592L271.957 150.7L272.42 152.821L272.825 154.952L273.17 157.093L273.455 159.241L273.681 161.396L273.847 163.554L273.953 165.716L274 167.878L273.987 170.041L273.915 172.201L273.783 174.359L273.592 176.51L273.341 178.655L273.031 180.792L272.66 182.917L272.228 185.03L271.735 187.129L271.179 189.21L270.56 191.272L269.878 193.312L269.131 195.328L268.32 197.317L267.445 199.278L266.504 201.207L265.5 203.103L264.43 204.962L263.297 206.784L262.101 208.565L260.842 210.303L259.521 211.997L258.139 213.643L256.698 215.241L255.198 216.788L253.642 218.282L252.03 219.722L250.365 221.106L248.648 222.433L246.882 223.701L245.067 224.909L243.207 226.057L241.304 227.142L239.361 228.165L237.378 229.125L235.36 230.021L233.309 230.853L231.227 231.621L229.117 232.325L226.983 232.965L224.825 233.542L222.648 234.055L220.455 234.506L218.247 234.895L216.028 235.224L213.8 235.493L211.566 235.704L209.329 235.857L207.091 235.956L204.856 236L202.624 235.992L200.399 235.934L198.183 235.828L195.978 235.675L193.786 235.478L191.609 235.238L189.449 234.958L187.307 234.641L185.186 234.288L183.086 233.902L181.009 233.484L178.957 233.038L176.929 232.565L174.928 232.067L172.954 231.548L171.008 231.009L169.09 230.452L167.201 229.88L165.342 229.295L163.513 228.699L161.713 228.095L159.944 227.486L158.205 226.874L156.497 226.262L154.818 225.652L153.17 225.047L151.551 224.45L149.962 223.863L148.401 223.289L146.867 222.73L145.361 222.19L143.881 221.67L142.426 221.174L140.995 220.704L139.586 220.263L138.199 219.854L136.832 219.48L135.482 219.142L134.149 218.845L132.831 218.591L131.525 218.381L130.229 218.219L128.941 218.105L127.659 218.04L126.38 218.026L125.102 218.063L123.823 218.15L122.539 218.287L121.249 218.473L119.95 218.707L118.64 218.986L117.317 219.309L115.979 219.673L114.623 220.074L113.25 220.51L111.856 220.976L110.442 221.469L109.005 221.984L107.546 222.517L106.063 223.062L104.557 223.614L103.028 224.169L101.477 224.72L99.9036 225.262L98.3095 225.79L96.696 226.298L95.0648 226.781L93.4177 227.232L91.7571 227.647L90.0854 228.02L88.4053 228.346L86.7198 228.621L85.0321 228.839L83.3456 228.996L81.6637 229.088L79.9902 229.111L78.3287 229.062L76.6831 228.938L75.0574 228.737L73.4553 228.455L71.8808 228.093L70.3377 227.647L68.8297 227.118L67.3604 226.505L65.9333 225.809L64.5516 225.03L63.2184 224.169L61.9366 223.227L60.7085 222.208L59.5365 221.113L58.4225 219.944L57.3679 218.706L56.3741 217.403L55.4417 216.037L54.5712 214.613L53.7624 213.136L53.0148 211.61L52.3273 210.042L51.698 208.436L51.1247 206.799L50.6047 205.136L50.1347 203.454L49.7108 201.758L49.3291 200.054L48.9848 198.349L48.6731 196.648L48.3886 194.956L48.1259 193.278L47.8794 191.621L47.6431 189.986L47.4113 188.38L47.1779 186.806L46.9373 185.265L46.6838 183.762L46.4118 182.298L46.1164 180.874L45.7928 179.491L45.4367 178.149L45.0441 176.849L44.6116 175.589L44.1356 174.368L43.6133 173.185L43.042 172.039L42.4195 170.927L41.7439 169.848L41.0139 168.798L40.2284 167.774L39.3869 166.775L38.4895 165.796L37.5367 164.835L36.5293 163.887L35.4688 162.95L34.357 162.019L33.1965 161.091L31.9901 160.163L30.741 159.23L29.453 158.289L28.1302 157.337L26.7772 156.371L25.399 155.386L24.0007 154.381L22.5878 153.352L21.1662 152.298L19.7419 151.215L18.3211 150.101L16.9101 148.956L15.5155 147.777L14.1437 146.564L12.8013 145.316L11.4947 144.032L10.2305 142.713L9.01488 141.359L7.85404 139.97L6.75391 138.547L5.72018 137.093L4.75826 135.607L3.87323 134.093L3.06979 132.552L2.35226 130.986L1.72451 129.4L1.18997 127.794L0.751565 126.173L0.411735 124.539L0.17238 122.896L0.0348636 121.248L0 119.597L0.0680451 117.947L0.238695 116.302L0.511089 114.666L0.883811 113.04L1.3549 111.43L1.92189 109.837L2.58176 108.266L3.33104 106.718L4.1657 105.196L5.08105 103.703L6.07174 102.241L7.13185 100.81L8.25494 99.4129L9.43413 98.0497L10.6622 96.7208L11.9316 95.4264L13.2345 94.1659L14.5632 92.9384L15.9096 91.7425L17.266 90.5765L18.6244 89.4384L19.9774 88.3254L21.3176 87.2349L22.638 86.1637L23.9321 85.1084L25.1938 84.0653L26.4175 83.0306L27.5984 82.0006L28.7321 80.9711L29.8151 79.9384L30.8447 78.8984L31.8187 77.8476L32.7356 76.7821L33.5942 75.6983L34.3941 74.5928L35.1352 73.4622L35.8179 72.3034L36.4432 71.1133L37.0125 69.8893L37.5278 68.6289L37.9913 67.3301L38.4059 65.991L38.7749 64.6103L39.1016 63.1868L39.3903 61.7199L39.6449 60.2093L39.8703 58.6551L40.071 57.0579L40.2521 55.4187L40.4188 53.739L40.5764 52.0204L40.7303 50.2654L40.886 48.4765L41.0487 46.6569L41.2241 44.8099L41.4174 42.9393L41.6338 41.0494L41.8784 39.1444L42.156 37.2292L42.4715 35.3088L42.829 33.3883L43.2328 31.4732L43.6867 29.5689L44.194 27.6812L44.7579 25.8157L45.3811 23.9782L46.0659 22.1745L46.8142 20.4102L47.6274 18.691L48.5067 17.0223L49.4526 15.4093L50.4654 13.8573L51.5448 12.3709L52.6901 10.9548L53.9003 9.61313L55.1739 8.34977L56.5091 7.16819L57.9038 6.07146L59.3555 5.06219L60.8612 4.14255L62.4179 3.31423L64.0223 2.57842L65.6708 1.93582L67.3596 1.38661L69.0848 0.930475L70.8424 0.56658L72.6282 0.293587L74.4382 0.109682L76.2681 0.0126661L78.1139 0L79.9716 0.0688128L81.8373 0.215911L83.7072 0.437791L85.5777 0.730661L87.4454 1.09046L89.307 1.51287L91.1593 1.99338L92.9996 2.52728L94.8252 3.10972L96.6337 3.73573L98.423 4.40029L100.191 5.09833L101.937 5.82483L103.658 6.57481L105.355 7.34342L107.026 8.12598L108.671 8.918L110.289 9.71527L111.88 10.5139L113.445 11.3103L114.985 12.1014L116.499 12.8841L117.988 13.6558L119.454 14.4138L120.897 15.1556L122.319 15.8792L123.72 16.5826L125.102 17.264L126.467 17.922L127.815 18.5553L129.148 19.1631L130.468 19.7446L131.777 20.2995L133.075 20.8276L134.364 21.329L135.646 21.8042L136.922 22.2538L138.194 22.6788L139.462 23.0803L140.728 23.4598L141.993 23.8188L143.258 24.1592L144.523 24.4832L145.789 24.7927L147.057 25.0903L148.328 25.3784L149.6 25.6596L150.875 25.9366L152.152 26.2121L153.431 26.4891L154.711 26.7703L155.992 27.0584L157.274 27.3565L158.554 27.6671L159.833 27.9929L161.109 28.3365L162.381 28.7005L163.647 29.087L164.906 29.4983L166.157 29.9364L167.398 30.403L168.627 30.8998L169.843 31.4282L171.044 31.9892L172.229 32.5839L173.396 33.2128L174.544 33.8765L175.67 34.5751L176.775 35.3085L177.857 36.0764L178.914 36.8783L179.946 37.7134L180.952 38.5806L181.932 39.4787L182.885 40.4064L183.81 41.3619L184.709 42.3435L185.581 43.3493L186.426 44.377L187.246 45.4245L188.041 46.4893L188.813 47.5689L189.563 48.6609L190.293 49.7626L191.004 50.8717L191.698 51.9855L192.378 53.1018L193.047 54.2181L193.705 55.3324L194.357 56.4425L195.004 57.5465L195.649 58.6429L196.295 59.7301L196.944 60.8068L197.599 61.8721L198.263 62.925L198.937 63.965L199.623 64.9919L200.325 66.0057L201.043 67.0064L201.779 67.9946L202.536 68.9707L203.313 69.9354L204.113 70.8894L204.937 71.8337L205.786 72.769L206.661 73.6966L207.564 74.6176L208.495 75.5332L209.454 76.4448L210.442 77.3538L211.461 78.2616L212.509 79.1698L213.587 80.08L214.696 80.9938L215.835 81.913L217.003 82.8391L218.2 83.774L219.426 84.7194L220.68 85.6771L221.96 86.6488L223.266 87.6361L224.597 88.6409L225.95 89.6648L227.325 90.7094L228.72 91.7763L230.133 92.8671L231.562 93.9831L233.005 95.1258L234.459 96.2965L235.923 97.4964L237.395 98.7267L238.87 99.9883L240.348 101.282L241.826 102.609L243.3 103.97L244.768 105.365L246.228 106.795L247.676 108.26L249.11 109.761L250.527 111.297L251.924 112.868L253.298 114.475L254.648 116.117L255.969 117.793L257.259 119.504L258.517 121.248" fill="#DBCAFC"/>
</svg>
