<svg width="314" height="495" viewBox="0 0 314 495" fill="none" xmlns="http://www.w3.org/2000/svg">
<path fill-rule="evenodd" clip-rule="evenodd" d="M128.707 35.7424L130.879 33.2944L133.102 30.9087L135.376 28.5894L137.7 26.3409L140.072 24.1668L142.491 22.071L144.956 20.0569L147.466 18.1278L150.018 16.2869L152.611 14.5369L155.243 12.8805L157.913 11.32L160.618 9.85736L163.356 8.49425L166.125 7.23218L168.924 6.0723L171.749 5.01557L174.6 4.06274L177.473 3.2143L180.367 2.47071L183.279 1.83221L186.207 1.29895L189.15 0.87106L192.104 0.54867L195.068 0.331914L198.04 0.22102L201.017 0.216346L203.996 0.318378L206.977 0.527887L209.955 0.845809L212.929 1.27344L215.895 1.8124L218.851 2.46456L221.793 3.23154L224.719 4.11485L227.626 5.11567L230.509 6.2349L233.367 7.47335L236.195 8.8314L238.991 10.3092L241.751 11.9067L244.472 13.6235L247.15 15.459L249.784 17.4123L252.369 19.4822L254.902 21.6671L257.382 23.9655L259.804 26.3751L262.166 28.8939L264.465 31.5193L266.699 34.2484L268.866 37.0783L270.963 40.0056L272.988 43.027L274.939 46.1387L276.815 49.3368L278.614 52.6172L280.335 55.9757L281.976 59.4079L283.537 62.9091L285.017 66.4748L286.414 70.1001L287.73 73.7802L288.964 77.5101L290.115 81.2849L291.185 85.0994L292.174 88.9487L293.082 92.8277L293.911 96.7315L294.661 100.655L295.334 104.594L295.932 108.542L296.455 112.496L296.907 116.451L297.289 120.402L297.602 124.345L297.85 128.276L298.035 132.191L298.159 136.086L298.225 139.957L298.235 143.802L298.192 147.616L298.1 151.398L297.96 155.144L297.776 158.851L297.55 162.518L297.286 166.143L296.986 169.723L296.653 173.257L296.29 176.743L295.9 180.181L295.487 183.568L295.053 186.904L294.601 190.189L294.136 193.42L293.661 196.598L293.179 199.723L292.694 202.793L292.21 205.81L291.73 208.773L291.258 211.683L290.798 214.54L290.353 217.345L289.927 220.1L289.524 222.805L289.149 225.462L288.804 228.072L288.494 230.638L288.223 233.161L287.995 235.644L287.814 238.088L287.684 240.497L287.61 242.873L287.594 245.221L287.641 247.542L287.752 249.842L287.93 252.123L288.175 254.391L288.49 256.649L288.874 258.902L289.327 261.155L289.848 263.411L290.436 265.675L291.089 267.951L291.804 270.243L292.577 272.556L293.406 274.892L294.286 277.256L295.211 279.651L296.177 282.078L297.177 284.541L298.206 287.042L299.257 289.581L300.323 292.161L301.396 294.781L302.47 297.441L303.536 300.142L304.587 302.882L305.615 305.659L306.611 308.472L307.569 311.318L308.479 314.194L309.334 317.096L310.128 320.02L310.851 322.963L311.498 325.918L312.062 328.881L312.536 331.845L312.914 334.807L313.192 337.758L313.363 340.693L313.425 343.605L313.373 346.488L313.204 349.336L312.915 352.14L312.506 354.896L311.974 357.597L311.319 360.237L310.541 362.809L309.642 365.308L308.623 367.729L307.485 370.067L306.233 372.319L304.869 374.479L303.398 376.544L301.824 378.513L300.153 380.383L298.389 382.152L296.541 383.821L294.613 385.389L292.615 386.857L290.554 388.228L288.438 389.505L286.276 390.692L284.077 391.793L281.85 392.814L279.603 393.763L277.347 394.645L275.089 395.468L272.839 396.242L270.604 396.975L268.392 397.677L266.21 398.356L264.066 399.023L261.965 399.688L259.912 400.36L257.913 401.049L255.97 401.764L254.088 402.515L252.267 403.309L250.51 404.154L248.816 405.057L247.186 406.024L245.618 407.062L244.112 408.176L242.666 409.371L241.277 410.652L239.943 412.021L238.661 413.482L237.427 415.037L236.237 416.687L235.087 418.433L233.972 420.274L232.887 422.21L231.827 424.239L230.787 426.357L229.761 428.561L228.744 430.846L227.729 433.208L226.712 435.64L225.686 438.135L224.647 440.687L223.589 443.285L222.507 445.923L221.395 448.59L220.25 451.277L219.067 453.973L217.841 456.668L216.57 459.35L215.25 462.009L213.878 464.633L212.453 467.21L210.971 469.73L209.433 472.18L207.836 474.55L206.18 476.828L204.466 479.004L202.695 481.068L200.866 483.009L198.982 484.818L197.045 486.488L195.057 488.009L193.021 489.374L190.941 490.577L188.818 491.613L186.659 492.475L184.466 493.162L182.244 493.668L179.998 493.993L177.732 494.136L175.452 494.096L173.161 493.875L170.866 493.474L168.57 492.896L166.279 492.146L163.997 491.228L161.729 490.147L159.479 488.912L157.252 487.528L155.05 486.007L152.878 484.357L150.738 482.59L148.633 480.719L146.565 478.755L144.535 476.713L142.544 474.606L140.594 472.448L138.682 470.253L136.81 468.036L134.975 465.811L133.176 463.592L131.41 461.392L129.674 459.223L127.965 457.099L126.28 455.03L124.615 453.028L122.964 451.1L121.324 449.256L119.69 447.502L118.057 445.844L116.421 444.286L114.777 442.832L113.12 441.484L111.445 440.243L109.748 439.11L108.025 438.086L106.271 437.168L104.482 436.355L102.655 435.643L100.787 435.029L98.8729 434.508L96.9118 434.075L94.9011 433.723L92.839 433.446L90.7243 433.236L88.5562 433.085L86.3346 432.984L84.0596 432.925L81.7322 432.897L79.3538 432.892L76.9264 432.9L74.4524 432.91L71.9349 432.912L69.3775 432.896L66.7842 432.852L64.1596 432.77L61.5088 432.641L58.8371 432.454L56.1504 432.202L53.4549 431.875L50.7572 431.465L48.0639 430.965L45.3821 430.368L42.719 429.666L40.0818 428.856L37.478 427.93L34.9148 426.886L32.3996 425.72L29.9397 424.428L27.5422 423.01L25.2139 421.463L22.9615 419.788L20.7913 417.985L18.7093 416.056L16.721 414.001L14.8317 411.824L13.0458 409.528L11.3675 407.117L9.80033 404.597L8.34726 401.971L7.01059 399.246L5.79202 396.428L4.69258 393.524L3.71264 390.54L2.8519 387.485L2.10938 384.364L1.48347 381.187L0.972034 377.961L0.57244 374.693L0.2816 371.391L0.0959575 368.062L0.0115156 364.714L0.0238426 361.353L0.128113 357.987L0.319126 354.622L0.591344 351.263L0.938938 347.918L1.35583 344.591L1.83574 341.287L2.37223 338.011L2.9588 334.767L3.5889 331.559L4.25602 328.389L4.95375 325.26L5.67585 322.176L6.4163 319.136L7.16943 316.142L7.92988 313.195L8.6928 310.295L9.45375 307.441L10.2086 304.634L10.9534 301.872L11.6844 299.154L12.3981 296.479L13.0913 293.845L13.7612 291.251L14.405 288.693L15.0205 286.171L15.6058 283.682L16.1592 281.222L16.6795 278.791L17.1659 276.384L17.6179 274L18.0352 271.636L18.4183 269.289L18.7677 266.956L19.0844 264.636L19.3698 262.325L19.6256 260.022L19.8537 257.724L20.0565 255.429L20.2365 253.136L20.3968 250.843L20.5403 248.549L20.6704 246.253L20.7907 243.953L20.9048 241.651L21.0164 239.345L21.1296 237.035L21.2482 234.721L21.3762 232.406L21.5175 230.088L21.6762 227.77L21.8561 225.452L22.0609 223.137L22.2943 220.826L22.5597 218.521L22.8603 216.224L23.1992 213.939L23.5791 211.666L24.0026 209.409L24.472 207.171L24.989 204.953L25.5553 202.759L26.1721 200.591L26.8402 198.452L27.5604 196.344L28.3326 194.27L29.1568 192.231L30.0324 190.23L30.9585 188.269L31.9338 186.348L32.9568 184.469L34.0257 182.633L35.1382 180.841L36.292 179.092L37.4843 177.387L38.712 175.725L39.9719 174.105L41.2606 172.527L42.5744 170.987L43.9096 169.484L45.2624 168.016L46.6289 166.579L48.0055 165.171L49.3882 163.788L50.7736 162.426L52.1581 161.081L53.5384 159.75L54.9114 158.427L56.2743 157.109L57.6245 155.792L58.9598 154.47L60.2781 153.139L61.5779 151.796L62.8579 150.436L64.1174 149.055L65.3558 147.651L66.5731 146.219L67.7694 144.757L68.9451 143.261L70.1009 141.73L71.2374 140.16L72.3556 138.55L73.4565 136.896L74.5413 135.198L75.6115 133.452L76.6686 131.657L77.7142 129.812L78.7501 127.916L79.7784 125.967L80.8009 123.965L81.8199 121.909L82.8377 119.799L83.8564 117.635L84.8787 115.418L85.9068 113.148L86.9434 110.825L87.9909 108.451L89.052 106.028L90.1292 103.556L91.2251 101.039L92.3423 98.4774L93.4834 95.8746L94.6508 93.2332L95.847 90.5562L97.0744 87.8467L98.3353 85.1083L99.632 82.3445L100.967 79.5592L102.341 76.7565L103.758 73.9405L105.218 71.1157L106.723 68.2866L108.275 65.4578L109.875 62.6339L111.525 59.8198L113.225 57.0205L114.976 54.2407L116.779 51.4854L118.635 48.7596L120.543 46.0682L122.505 43.416L124.519 40.8078L126.587 38.2484L128.707 35.7424Z" fill="url(#paint0_linear_79_481)"/>
<defs>
<linearGradient id="paint0_linear_79_481" x1="177.819" y1="494.248" x2="114.735" y2="8.86532" gradientUnits="userSpaceOnUse">
<stop stop-color="#1170FF"/>
<stop offset="1" stop-color="#8200E9"/>
</linearGradient>
</defs>
</svg>



