<svg width="426" height="548" viewBox="0 0 426 548" fill="none" xmlns="http://www.w3.org/2000/svg">
<path fill-rule="evenodd" clip-rule="evenodd" d="M417.29 278.206L416.971 280.013L416.649 281.813L416.325 283.606L415.998 285.392L415.67 287.173L415.341 288.948L415.012 290.719L414.684 292.485L414.357 294.248L414.032 296.007L413.711 297.765L413.394 299.52L413.082 301.276L412.777 303.031L412.479 304.788L412.189 306.546L411.91 308.308L411.64 310.075L411.382 311.846L411.137 313.625L410.905 315.411L410.687 317.207L410.484 319.014L410.297 320.832L410.126 322.664L409.973 324.512L409.836 326.375L409.717 328.257L409.617 330.158L409.534 332.079L409.47 334.024L409.423 335.992L409.394 337.986L409.383 340.007L409.388 342.056L409.41 344.134L409.447 346.244L409.498 348.385L409.562 350.56L409.638 352.769L409.725 355.013L409.82 357.293L409.922 359.61L410.03 361.964L410.14 364.355L410.252 366.784L410.362 369.251L410.469 371.757L410.569 374.299L410.661 376.88L410.742 379.498L410.809 382.152L410.86 384.842L410.893 387.568L410.906 390.328L410.894 393.122L410.857 395.948L410.791 398.805L410.695 401.692L410.565 404.607L410.4 407.549L410.197 410.517L409.954 413.508L409.669 416.521L409.339 419.553L408.963 422.603L408.538 425.668L408.063 428.747L407.535 431.837L406.954 434.935L406.317 438.04L405.623 441.149L404.87 444.259L404.057 447.368L403.183 450.473L402.247 453.571L401.248 456.661L400.184 459.738L399.055 462.801L397.861 465.847L396.601 468.873L395.274 471.877L393.881 474.855L392.42 477.806L390.893 480.725L389.298 483.612L387.637 486.464L385.91 489.277L384.116 492.049L382.256 494.779L380.332 497.462L378.343 500.097L376.29 502.682L374.174 505.213L371.997 507.688L369.758 510.106L367.459 512.463L365.102 514.757L362.687 516.986L360.216 519.149L357.69 521.242L355.112 523.265L352.482 525.214L349.802 527.09L347.075 528.889L344.301 530.61L341.484 532.253L338.625 533.815L335.725 535.296L332.788 536.695L329.815 538.01L326.808 539.241L323.77 540.388L320.703 541.449L317.61 542.425L314.491 543.315L311.35 544.119L308.19 544.838L305.011 545.47L301.817 546.017L298.61 546.479L295.392 546.856L292.165 547.149L288.932 547.359L285.694 547.485L282.454 547.529L279.213 547.492L275.974 547.375L272.739 547.179L269.509 546.904L266.287 546.551L263.074 546.123L259.873 545.619L256.684 545.042L253.51 544.391L250.352 543.669L247.212 542.877L244.092 542.017L240.992 541.089L237.914 540.096L234.86 539.04L231.831 537.922L228.827 536.744L225.851 535.508L222.902 534.216L219.982 532.871L217.092 531.474L214.232 530.028L211.403 528.535L208.605 526.997L205.839 525.417L203.105 523.796L200.403 522.138L197.734 520.444L195.097 518.716L192.492 516.958L189.92 515.172L187.38 513.359L184.871 511.522L182.393 509.663L179.945 507.785L177.528 505.889L175.139 503.979L172.779 502.055L170.446 500.12L168.14 498.175L165.859 496.223L163.603 494.266L161.37 492.304L159.159 490.341L156.968 488.376L154.798 486.412L152.645 484.451L150.51 482.492L148.39 480.538L146.284 478.589L144.191 476.646L142.11 474.71L140.04 472.781L137.978 470.858L135.926 468.943L133.88 467.035L131.842 465.133L129.809 463.238L127.781 461.349L125.758 459.465L123.738 457.586L121.723 455.711L119.71 453.838L117.701 451.967L115.694 450.098L113.691 448.228L111.69 446.356L109.692 444.483L107.698 442.605L105.707 440.724L103.72 438.836L101.737 436.941L99.7595 435.037L97.7873 433.125L95.8212 431.201L93.8619 429.267L91.9101 427.319L89.9666 425.358L88.0321 423.382L86.1075 421.39L84.1935 419.382L82.291 417.357L80.4008 415.314L78.5237 413.253L76.6605 411.172L74.8118 409.072L72.9784 406.952L71.161 404.812L69.3602 402.65L67.5764 400.468L65.8101 398.265L64.0617 396.041L62.3314 393.796L60.6195 391.53L58.926 389.243L57.251 386.935L55.5943 384.606L53.9562 382.257L52.3365 379.888L50.7352 377.498L49.1524 375.089L47.5881 372.659L46.0423 370.209L44.5149 367.739L43.0061 365.249L41.5158 362.74L40.0442 360.211L38.5913 357.661L37.1572 355.093L35.742 352.504L34.346 349.895L32.9692 347.267L31.6119 344.619L30.2744 341.951L28.9569 339.263L27.6597 336.556L26.3833 333.828L25.1279 331.08L23.8941 328.312L22.6822 325.524L21.4929 322.716L20.3265 319.888L19.1838 317.04L18.0653 314.171L16.9717 311.282L15.9036 308.374L14.8619 305.445L13.8471 302.496L12.8601 299.528L11.9018 296.539L10.9728 293.531L10.0741 290.504L9.20658 287.458L8.37102 284.392L7.56833 281.308L6.79943 278.206L6.06528 275.086L5.36691 271.948L4.70541 268.792L4.08193 265.62L3.49766 262.432L2.95381 259.228L2.45164 256.009L1.99242 252.775L1.57743 249.528L1.20794 246.268L0.885246 242.995L0.610592 239.712L0.385217 236.418L0.210328 233.115L0.0870898 229.804L0.0166244 226.485L0 223.16L0.0382269 219.831L0.132251 216.498L0.28295 213.162L0.491126 209.825L0.757506 206.488L1.08273 203.153L1.46737 199.82L1.9119 196.492L2.4167 193.168L2.98208 189.852L3.60825 186.543L4.29535 183.244L5.04342 179.955L5.85243 176.679L6.72225 173.415L7.65271 170.167L8.64353 166.934L9.69438 163.718L10.8049 160.52L11.9746 157.342L13.203 154.184L14.4895 151.048L15.8336 147.934L17.2347 144.845L18.692 141.78L20.2051 138.741L21.7731 135.73L23.3955 132.746L25.0716 129.791L26.8006 126.867L28.5819 123.973L30.4144 121.112L32.2974 118.283L34.2297 115.487L36.2103 112.726L38.238 109.999L40.3117 107.307L42.4299 104.65L44.5916 102.03L46.7952 99.4458L49.0396 96.8979L51.3232 94.3864L53.6447 91.9114L56.0027 89.4729L58.3957 87.0707L60.8224 84.7047L63.2815 82.3747L65.7714 80.0803L68.291 77.8214L70.8388 75.5974L73.4137 73.4079L76.0143 71.2526L78.6395 69.1309L81.2881 67.0423L83.9591 64.9863L86.6515 62.9623L89.3641 60.9698L92.0962 59.0082L94.8469 57.0771L97.6154 55.1757L100.401 53.3037L103.203 51.4606L106.021 49.6458L108.854 47.8589L111.701 46.0996L114.564 44.3676L117.44 42.6624L120.33 40.9839L123.233 39.3319L126.15 37.7063L129.08 36.107L132.023 34.534L134.979 32.9873L137.947 31.467L140.929 29.9734L143.924 28.5067L146.931 27.0671L149.951 25.6551L152.985 24.271L156.031 22.9155L159.091 21.5889L162.163 20.292L165.249 19.0254L168.348 17.7899L171.46 16.5863L174.585 15.4153L177.724 14.2781L180.876 13.1754L184.04 12.1083L187.218 11.0779L190.409 10.0852L193.612 9.1314L196.828 8.21762L200.056 7.34505L203.295 6.51492L206.547 5.72845L209.809 4.98689L213.081 4.29149L216.364 3.64353L219.657 3.04426L222.958 2.49495L226.267 1.99685L229.584 1.5512L232.907 1.15923L236.236 0.822148L239.57 0.54112L242.907 0.317297L246.248 0.151793L249.59 0.0456824L252.933 0L256.276 0.0157352L259.616 0.0938297L262.954 0.235175L266.287 0.440608L269.615 0.710912L272.935 1.04681L276.247 1.44897L279.549 1.91797L282.839 2.45431L286.117 3.0584L289.38 3.73057L292.626 4.47106L295.855 5.27999L299.065 6.15742L302.254 7.10329L305.421 8.11745L308.563 9.19965L311.68 10.3495L314.769 11.5667L317.83 12.8505L320.861 14.2004L323.86 15.6157L326.826 17.0954L329.757 18.6387L332.652 20.2445L335.51 21.9117L338.33 23.6391L341.109 25.4255L343.848 27.2695L346.544 29.1695L349.198 31.1242L351.807 33.1319L354.371 35.1909L356.889 37.2995L359.361 39.4559L361.785 41.6584L364.162 43.905L366.49 46.1937L368.769 48.5227L370.999 50.8899L373.179 53.2932L375.31 55.7307L377.391 58.2002L379.422 60.6997L381.403 63.227L383.335 65.7801L385.217 68.3569L387.05 70.9553L388.835 73.5734L390.571 76.2094L392.259 78.8614L393.9 81.5278L395.493 84.2072L397.039 86.8979L398.539 89.5987L399.992 92.3082L401.4 95.0251L402.762 97.7483L404.08 100.477L405.353 103.209L406.582 105.944L407.767 108.682L408.908 111.421L410.007 114.16L411.063 116.898L412.077 119.636L413.049 122.371L413.98 125.103L414.87 127.831L415.719 130.555L416.528 133.275L417.298 135.988L418.028 138.695L418.72 141.395L419.374 144.088L419.99 146.772L420.569 149.447L421.112 152.113L421.618 154.768L422.09 157.413L422.526 160.047L422.928 162.668L423.298 165.278L423.634 167.874L423.939 170.457L424.212 173.026L424.455 175.58L424.669 178.12L424.854 180.643L425.012 183.151L425.143 185.642L425.248 188.116L425.329 190.573L425.386 193.013L425.421 195.434L425.434 197.837L425.427 200.221L425.4 202.586L425.355 204.932L425.293 207.26L425.214 209.568L425.12 211.857L425.011 214.127L424.889 216.377L424.753 218.609L424.606 220.821L424.447 223.015L424.278 225.191L424.099 227.348L423.91 229.487L423.713 231.609L423.508 233.713L423.295 235.799L423.075 237.87L422.848 239.923L422.615 241.961L422.376 243.984L422.131 245.991L421.881 247.983L421.626 249.961L421.366 251.925L421.102 253.876L420.832 255.814L420.559 257.739L420.281 259.652L419.999 261.553L419.713 263.443L419.424 265.322L419.13 267.191L418.832 269.049L418.531 270.898L418.226 272.738L417.918 274.569L417.606 276.391L417.29 278.206Z" fill="#824BED"/>
</svg>



