<svg width="509" height="439" viewBox="0 0 509 439"  xmlns="http://www.w3.org/2000/svg">
<path id="blobCompagny" fill-rule="evenodd" clip-rule="evenodd" d="M480.129 225.267V225.267L482.399 228.568L484.597 231.928L486.721 235.345L488.765 238.818L490.727 242.345L492.602 245.922L494.387 249.549L496.078 253.221L497.674 256.937L499.17 260.694L500.565 264.488L501.856 268.318L503.042 272.18L504.12 276.07L505.091 279.987L505.952 283.927L506.703 287.887L507.344 291.864L507.874 295.855L508.293 299.858L508.601 303.868L508.799 307.884L508.885 311.903L508.862 315.92L508.727 319.934L508.483 323.942L508.128 327.94L507.662 331.925L507.085 335.894L506.396 339.843L505.594 343.769L504.678 347.668L503.646 351.534L502.497 355.365L501.23 359.155L499.843 362.901L498.337 366.597L496.711 370.24L494.964 373.824L493.098 377.346L491.112 380.801L489.008 384.185L486.785 387.494L484.447 390.724L481.994 393.87L479.428 396.929L476.751 399.897L473.966 402.771L471.075 405.547L468.082 408.223L464.99 410.794L461.801 413.259L458.52 415.616L455.15 417.861L451.696 419.992L448.162 422.009L444.552 423.91L440.87 425.693L437.122 427.358L433.312 428.904L429.446 430.331L425.528 431.639L421.562 432.828L417.556 433.899L413.513 434.853L409.438 435.69L405.338 436.414L401.216 437.024L397.079 437.524L392.93 437.915L388.776 438.201L384.62 438.384L380.467 438.466L376.323 438.452L372.19 438.344L368.074 438.146L363.979 437.862L359.908 437.495L355.864 437.05L351.853 436.531L347.875 435.941L343.935 435.285L340.036 434.567L336.178 433.792L332.366 432.962L328.601 432.084L324.885 431.16L321.219 430.195L317.604 429.193L314.042 428.158L310.534 427.095L307.081 426.008L303.683 424.901L300.341 423.78L297.055 422.648L293.826 421.511L290.653 420.374L287.536 419.241L284.474 418.117L281.468 417.007L278.516 415.916L275.617 414.849L272.769 413.811L269.971 412.807L267.223 411.842L264.52 410.921L261.862 410.048L259.246 409.229L256.67 408.469L254.13 407.773L251.624 407.146L249.148 406.594L246.699 406.121L244.274 405.732L241.867 405.43L239.475 405.218L237.094 405.098L234.719 405.072L232.346 405.14L229.969 405.302L227.585 405.557L225.189 405.903L222.776 406.337L220.343 406.856L217.886 407.456L215.401 408.132L212.884 408.878L210.333 409.687L207.745 410.554L205.117 411.47L202.449 412.426L199.739 413.415L196.985 414.428L194.189 415.454L191.349 416.484L188.468 417.508L185.546 418.516L182.585 419.497L179.588 420.441L176.559 421.337L173.5 422.176L170.415 422.947L167.311 423.64L164.19 424.246L161.06 424.756L157.926 425.161L154.793 425.452L151.67 425.623L148.561 425.667L145.476 425.576L142.419 425.346L139.4 424.971L136.425 424.449L133.5 423.775L130.634 422.947L127.834 421.964L125.105 420.826L122.454 419.532L119.888 418.084L117.412 416.485L115.031 414.736L112.751 412.841L110.574 410.806L108.505 408.636L106.546 406.336L104.701 403.914L102.969 401.376L101.352 398.73L99.85 395.986L98.4616 393.152L97.1846 390.238L96.0159 387.255L94.9512 384.213L93.9854 381.124L93.1124 377.998L92.3253 374.847L91.6163 371.682L90.9769 368.514L90.3979 365.353L89.8696 362.21L89.3817 359.093L88.9238 356.013L88.485 352.977L88.0544 349.993L87.6211 347.067L87.1742 344.206L86.7032 341.413L86.1982 338.692L85.6496 336.047L85.0485 333.477L84.3871 330.985L83.6581 328.569L82.8547 326.227L81.9707 323.96L81.0007 321.762L79.9397 319.633L78.7835 317.567L77.5288 315.561L76.1728 313.61L74.714 311.709L73.1512 309.852L71.4846 308.034L69.7149 306.247L67.8438 304.487L65.8742 302.745L63.8095 301.016L61.6541 299.292L59.4134 297.567L57.0935 295.834L54.7014 294.087L52.2447 292.318L49.7319 290.522L47.1722 288.693L44.5751 286.826L41.9511 284.915L39.3108 282.955L36.6655 280.943L34.0267 278.874L31.4063 276.746L28.8161 274.556L26.2683 272.303L23.7751 269.984L21.3485 267.599L19.0005 265.148L16.7429 262.632L14.5869 260.051L12.5437 257.408L10.6238 254.705L8.83727 251.945L7.19354 249.132L5.70136 246.269L4.36872 243.36L3.20284 240.412L2.21006 237.429L1.39584 234.417L0.764693 231.382L0.320152 228.33L0.0647503 225.267L0 222.2L0.126376 219.135L0.443316 216.079L0.949217 213.038L1.64145 210.018L2.51639 207.026L3.56942 204.068L4.79496 201.148L6.18656 198.272L7.73673 195.445L9.43675 192.671L11.2767 189.954L13.2456 187.296L15.3315 184.7L17.5215 182.167L19.8023 179.698L22.1598 177.293L24.5798 174.951L27.0474 172.671L29.5481 170.449L32.0672 168.283L34.5901 166.168L37.103 164.1L39.592 162.074L42.0444 160.084L44.4478 158.123L46.7911 156.185L49.0638 154.263L51.257 152.349L53.3626 150.437L55.3741 148.518L57.2862 146.586L59.0952 144.634L60.798 142.654L62.3927 140.64L63.8783 138.587L65.2547 136.486L66.5227 134.333L67.684 132.122L68.7414 129.848L69.6983 127.506L70.5592 125.093L71.3293 122.605L72.0144 120.04L72.6214 117.395L73.1574 114.67L73.6304 111.863L74.0489 108.976L74.4217 106.008L74.7581 102.963L75.0677 99.842L75.3605 96.6491L75.6463 93.3885L75.9353 90.0649L76.2376 86.6841L76.5633 83.2526L76.9222 79.7773L77.3241 76.2659L77.7784 72.7267L78.2941 69.1685L78.88 65.6005L79.544 62.0324L80.294 58.4743L81.1369 54.9363L82.0791 51.4291L83.1264 47.9632L84.2838 44.5494L85.5557 41.1982L86.9454 37.9203L88.4559 34.7262L90.0889 31.6258L91.8457 28.6291L93.7267 25.7455L95.7313 22.984L97.8584 20.353L100.106 17.8603L102.471 15.5131L104.951 13.3178L107.542 11.2802L110.238 9.40508L113.034 7.69647L115.925 6.15753L118.905 4.79046L121.967 3.59657L125.103 2.57619L128.308 1.72874L131.572 1.05265L134.889 0.545458L138.25 0.203779L141.649 0.0235324L145.077 0L148.527 0.127848L151.992 0.401142L155.465 0.813375L158.939 1.3575L162.408 2.02597L165.865 2.81077L169.305 3.70352L172.723 4.69545L176.114 5.77757L179.473 6.94064L182.796 8.17533L186.08 9.47223L189.322 10.822L192.519 12.2154L195.67 13.6434L198.774 15.0973L201.828 16.5688L204.833 18.0501L207.789 19.5338L210.696 21.0135L213.555 22.4833L216.367 23.9375L219.133 25.3712L221.856 26.7794L224.536 28.1578L227.176 29.5021L229.779 30.8089L232.346 32.0749L234.88 33.2974L237.384 34.4741L239.86 35.6033L242.312 36.6837L244.742 37.7146L247.153 38.6957L249.548 39.6273L251.929 40.5101L254.299 41.3455L256.66 42.1351L259.016 42.881L261.367 43.586L263.716 44.2531L266.065 44.8856L268.414 45.4874L270.766 46.0626L273.122 46.6154L275.481 47.1507L277.844 47.6731L280.212 48.1877L282.583 48.6997L284.958 49.2143L287.336 49.7367L289.716 50.2721L292.096 50.8258L294.474 51.4028L296.849 52.0082L299.219 52.6467L301.581 53.3228L303.933 54.041L306.271 54.8052L308.594 55.6191L310.899 56.486L313.182 57.409L315.44 58.3907L317.671 59.433L319.872 60.5378L322.039 61.7064L324.17 62.9394L326.263 64.2373L328.315 65.5999L330.324 67.0266L332.287 68.5165L334.204 70.0679L336.073 71.6791L337.892 73.3478L339.662 75.0713L341.381 76.8466L343.05 78.6703L344.669 80.5389L346.24 82.4484L347.762 84.3945L349.239 86.3727L350.673 88.3786L352.065 90.4074L353.42 92.4543L354.741 94.5148L356.031 96.5843L357.294 98.6581L358.535 100.732L359.758 102.802L360.968 104.865L362.17 106.916L363.368 108.953L364.568 110.973L365.774 112.973L366.99 114.953L368.222 116.909L369.474 118.841L370.75 120.749L372.053 122.632L373.386 124.492L374.754 126.328L376.158 128.141L377.602 129.933L379.088 131.706L380.618 133.46L382.195 135.198L383.821 136.921L385.497 138.633L387.226 140.334L389.007 142.027L390.843 143.716L392.734 145.403L394.681 147.09L396.684 148.781L398.743 150.479L400.858 152.187L403.027 153.907L405.251 155.644L407.528 157.401L409.856 159.18L412.234 160.985L414.66 162.82L417.131 164.687L419.645 166.589L422.199 168.53L424.79 170.512L427.414 172.538L430.067 174.612L432.747 176.735L435.449 178.91L438.168 181.139L440.9 183.425L443.641 185.769L446.386 188.173L449.13 190.638L451.868 193.166L454.595 195.758L457.306 198.415L459.995 201.137L462.659 203.925L465.29 206.779L467.885 209.699L470.438 212.684L472.943 215.734L475.397 218.849L477.794 222.027L480.129 225.267" fill='#824BED'/>
</svg>



