<svg width="218" height="281" viewBox="0 0 218 281" fill="none" xmlns="http://www.w3.org/2000/svg">
<path fill-rule="evenodd" clip-rule="evenodd" d="M213.827 142.779V142.779L213.664 143.707L213.499 144.63L213.332 145.55L213.165 146.467L212.997 147.381L212.828 148.292L212.66 149.201L212.491 150.107L212.324 151.012L212.158 151.915L211.993 152.817L211.83 153.718L211.671 154.619L211.514 155.52L211.362 156.421L211.213 157.324L211.07 158.228L210.932 159.135L210.8 160.044L210.674 160.957L210.555 161.874L210.444 162.795L210.34 163.722L210.244 164.656L210.156 165.596L210.077 166.544L210.008 167.5L209.947 168.466L209.895 169.442L209.853 170.428L209.82 171.426L209.796 172.436L209.781 173.459L209.775 174.496L209.778 175.548L209.789 176.615L209.808 177.697L209.834 178.796L209.867 179.913L209.906 181.046L209.95 182.198L209.999 183.368L210.052 184.557L210.107 185.765L210.163 186.992L210.221 188.239L210.277 189.505L210.332 190.791L210.383 192.096L210.43 193.42L210.472 194.764L210.506 196.126L210.532 197.507L210.549 198.905L210.555 200.322L210.55 201.756L210.531 203.206L210.497 204.672L210.448 206.154L210.381 207.65L210.297 209.16L210.193 210.683L210.068 212.218L209.922 213.764L209.753 215.321L209.56 216.886L209.342 218.459L209.099 220.039L208.829 221.625L208.531 223.215L208.204 224.809L207.848 226.404L207.463 228L207.046 229.596L206.598 231.189L206.119 232.779L205.607 234.365L205.062 235.944L204.483 237.516L203.871 239.079L203.226 240.632L202.546 242.174L201.832 243.702L201.083 245.217L200.301 246.715L199.484 248.197L198.632 249.66L197.747 251.104L196.828 252.527L195.875 253.928L194.889 255.305L193.87 256.657L192.818 257.984L191.734 259.283L190.618 260.553L189.471 261.794L188.293 263.003L187.085 264.181L185.847 265.325L184.581 266.435L183.287 267.509L181.966 268.547L180.618 269.548L179.245 270.51L177.847 271.433L176.426 272.317L174.983 273.16L173.517 273.962L172.032 274.722L170.527 275.439L169.003 276.114L167.463 276.746L165.906 277.335L164.334 277.879L162.749 278.38L161.151 278.837L159.542 279.25L157.922 279.619L156.293 279.943L154.657 280.224L153.013 280.461L151.364 280.655L149.711 280.805L148.054 280.912L146.395 280.977L144.734 281L143.074 280.981L141.414 280.921L139.756 280.82L138.101 280.679L136.45 280.498L134.804 280.278L133.164 280.02L131.53 279.723L129.903 279.389L128.285 279.019L126.676 278.612L125.077 278.171L123.489 277.695L121.912 277.185L120.347 276.643L118.794 276.069L117.255 275.465L115.73 274.83L114.219 274.167L112.723 273.477L111.242 272.76L109.776 272.018L108.327 271.252L106.893 270.463L105.475 269.652L104.075 268.82L102.69 267.969L101.322 267.099L99.9713 266.213L98.6367 265.31L97.3185 264.394L96.0168 263.463L94.7311 262.52L93.4613 261.567L92.2072 260.603L90.9684 259.63L89.7444 258.649L88.535 257.662L87.3397 256.669L86.1579 255.671L84.9892 254.669L83.833 253.664L82.6887 252.658L81.5558 251.65L80.4335 250.642L79.3212 249.634L78.2183 248.627L77.124 247.622L76.0377 246.619L74.9586 245.619L73.8862 244.622L72.8198 243.628L71.7588 242.638L70.7026 241.651L69.6507 240.668L68.6027 239.689L67.558 238.713L66.5163 237.741L65.4772 236.771L64.4405 235.804L63.4057 234.84L62.3729 233.877L61.3416 232.916L60.312 231.956L59.2838 230.997L58.2571 230.037L57.2319 229.076L56.2082 228.115L55.1862 227.152L54.1661 226.186L53.1479 225.217L52.132 224.244L51.1186 223.267L50.108 222.286L49.1006 221.299L48.0966 220.306L47.0964 219.306L46.1005 218.3L45.1093 217.286L44.1231 216.264L43.1423 215.233L42.1674 214.194L41.1989 213.145L40.237 212.087L39.2822 211.02L38.3349 209.942L37.3955 208.854L36.4642 207.755L35.5414 206.646L34.6274 205.526L33.7223 204.395L32.8264 203.254L31.9398 202.102L31.0626 200.939L30.1948 199.765L29.3364 198.581L28.4876 197.386L27.6481 196.18L26.8182 194.964L25.9977 193.738L25.1866 192.501L24.385 191.254L23.5929 189.997L22.8102 188.729L22.0371 187.451L21.2735 186.163L20.5194 184.865L19.7749 183.557L19.04 182.239L18.3149 180.91L17.5995 179.571L16.894 178.223L16.1985 176.864L15.5132 175.494L14.838 174.115L14.1734 172.725L13.5193 171.325L12.876 169.915L12.2438 168.495L11.6228 167.064L11.0133 165.623L10.4157 164.171L9.83014 162.709L9.257 161.237L8.69661 159.755L8.14932 158.262L7.61549 156.759L7.09551 155.245L6.58977 153.722L6.09869 152.188L5.62268 150.645L5.16218 149.091L4.71762 147.527L4.28946 145.954L3.87815 144.372L3.48415 142.779L3.10796 141.178L2.7501 139.567L2.41114 137.948L2.09166 136.32L1.79226 134.684L1.51359 133.039L1.25627 131.387L1.02095 129.728L0.808302 128.061L0.618973 126.388L0.453616 124.709L0.312878 123.024L0.197392 121.333L0.107776 119.638L0.0446264 117.939L0.00851863 116.235L0 114.529L0.0195882 112.82L0.067768 111.11L0.144989 109.398L0.251662 107.685L0.38816 105.973L0.554813 104.261L0.751908 102.551L0.97969 100.842L1.23836 99.1368L1.52807 97.4346L1.84893 95.7366L2.20102 94.0434L2.58434 92.3557L2.99889 90.6741L3.44461 88.9993L3.92139 87.332L4.4291 85.6727L4.96758 84.0223L5.53662 82.3811L6.13599 80.7499L6.76544 79.1293L7.42468 77.5198L8.11342 75.9219L8.83135 74.3363L9.57814 72.7635L10.3534 71.204L11.1569 69.6584L11.9883 68.1272L12.8471 66.6108L13.7331 65.1099L14.6459 63.6249L15.5849 62.1563L16.5498 60.7044L17.5399 59.2697L18.5548 57.8524L19.5939 56.4529L20.6564 55.0714L21.7419 53.7081L22.8495 52.3633L23.9787 51.037L25.1288 49.7294L26.2989 48.4405L27.4885 47.1703L28.6968 45.9188L29.923 44.6859L31.1665 43.4717L32.4266 42.2759L33.7025 41.0984L34.9936 39.939L36.2991 38.7977L37.6185 37.674L38.9511 36.5679L40.2963 35.479L41.6535 34.4071L43.0222 33.3519L44.4018 32.3132L45.7918 31.2906L47.1918 30.2839L48.6013 29.2928L50.0199 28.317L51.4472 27.3562L52.883 26.4103L54.3269 25.4789L55.7786 24.5619L57.2378 23.659L58.7045 22.7701L60.1783 21.895L61.6592 21.0335L63.1469 20.1857L64.6415 19.3514L66.1429 18.5306L67.6509 17.7233L69.1655 16.9295L70.6868 16.1493L72.2146 15.3828L73.7491 14.63L75.2901 13.8912L76.8378 13.1666L78.3922 12.4563L79.9532 11.7605L81.5209 11.0797L83.0953 10.4141L84.6765 9.76411L86.2645 9.13003L87.8592 8.5123L89.4607 7.91137L91.069 7.32771L92.684 6.7618L94.3057 6.21416L95.9341 5.68533L97.569 5.17587L99.2104 4.68636L100.858 4.2174L102.512 3.76959L104.172 3.34355L105.838 2.93992L107.51 2.55934L109.187 2.20245L110.869 1.86991L112.556 1.56236L114.248 1.28044L115.943 1.02481L117.643 0.796099L119.346 0.594936L121.052 0.421938L122.76 0.277711L124.47 0.162842L126.182 0.0779023L127.895 0.0234449L129.608 0L131.32 0.00807553L133.032 0.0481548L134.742 0.120695L136.45 0.226126L138.156 0.36485L139.857 0.537239L141.554 0.743632L143.246 0.984329L144.932 1.25959L146.612 1.56962L148.283 1.91458L149.947 2.29461L151.602 2.70977L153.246 3.16008L154.881 3.64551L156.503 4.16599L158.113 4.72139L159.71 5.31154L161.294 5.93619L162.862 6.59508L164.415 7.28788L165.952 8.01419L167.472 8.7736L168.974 9.56563L170.457 10.3898L171.922 11.2454L173.366 12.132L174.791 13.0487L176.194 13.9951L177.576 14.9702L178.935 15.9734L180.272 17.0037L181.586 18.0605L182.877 19.1426L184.143 20.2494L185.385 21.3797L186.603 22.5327L187.796 23.7073L188.964 24.9025L190.107 26.1174L191.224 27.3508L192.316 28.6018L193.382 29.8692L194.423 31.152L195.438 32.449L196.428 33.7593L197.392 35.0818L198.332 36.4153L199.246 37.7589L200.136 39.1117L201.001 40.4728L201.841 41.8413L202.658 43.2163L203.45 44.5973L204.219 45.9833L204.963 47.3739L205.685 48.7682L206.383 50.1658L207.058 51.566L207.71 52.9683L208.34 54.3722L208.947 55.7772L209.532 57.1828L210.095 58.5885L210.636 59.9939L211.156 61.3987L211.654 62.8024L212.131 64.2045L212.587 65.6048L213.022 67.0029L213.437 68.3984L213.831 69.791L214.205 71.1803L214.56 72.566L214.895 73.9478L215.211 75.3253L215.507 76.6983L215.785 78.0664L216.045 79.4292L216.286 80.7866L216.51 82.1383L216.716 83.4838L216.905 84.823L217.078 86.1555L217.234 87.4811L217.374 88.7994L217.499 90.1104L217.608 91.4135L217.703 92.7087L217.784 93.9957L217.851 95.2742L217.905 96.544L217.946 97.805L217.976 99.0568L217.993 100.299L218 101.533L217.996 102.756L217.983 103.97L217.96 105.174L217.928 106.369L217.887 107.553L217.839 108.728L217.783 109.893L217.721 111.048L217.651 112.193L217.576 113.329L217.495 114.455L217.408 115.571L217.316 116.678L217.219 117.776L217.118 118.865L217.013 119.945L216.904 121.016L216.791 122.078L216.675 123.132L216.556 124.178L216.433 125.216L216.308 126.246L216.18 127.268L216.049 128.284L215.916 129.292L215.78 130.293L215.642 131.287L215.502 132.275L215.36 133.257L215.215 134.233L215.069 135.203L214.92 136.167L214.77 137.126L214.617 138.08L214.463 139.029L214.307 139.973L214.149 140.913L213.989 141.848L213.827 142.779" fill="#CEE1D9"/>
</svg>
