<svg width="21" height="21" viewBox="0 0 21 21" fill="#DE543D" xmlns="http://www.w3.org/2000/svg">
<path d="M1.764 6.01C2.59601 4.35324 3.87237 2.96051 5.45043 1.98747C7.02849 1.01443 8.84606 0.499416 10.7 0.5C13.395 0.5 15.659 1.491 17.39 3.105L14.523 5.973C13.486 4.982 12.168 4.477 10.7 4.477C8.095 4.477 5.89 6.237 5.105 8.6C4.905 9.2 4.791 9.84 4.791 10.5C4.791 11.16 4.905 11.8 5.105 12.4C5.891 14.764 8.095 16.523 10.7 16.523C12.045 16.523 13.19 16.168 14.086 15.568C14.6054 15.226 15.0501 14.7822 15.3932 14.2635C15.7363 13.7448 15.9706 13.1619 16.082 12.55H10.7V8.682H20.118C20.236 9.336 20.3 10.018 20.3 10.727C20.3 13.773 19.21 16.337 17.318 18.077C15.664 19.605 13.4 20.5 10.7 20.5C9.38663 20.5005 8.08604 20.2422 6.87254 19.7399C5.65905 19.2375 4.55645 18.5009 3.62776 17.5722C2.69907 16.6435 1.9625 15.541 1.46014 14.3275C0.957775 13.114 0.699476 11.8134 0.700002 10.5C0.700002 8.886 1.086 7.36 1.764 6.01Z" fill="#DE543D"/>
</svg>
