      <svg
        width="200"
        height="495"
        viewBox="0 0 200 495"
        fill="none"
        xmlns="http://www.w3.org/2000/svg"
      >
        <path
          fill-rule="evenodd"
          clip-rule="evenodd"
          d="M14.7069 35.7424L16.8789 33.2944L19.1023 30.9087L21.3763 28.5894L23.6999 26.3409L26.0719 24.1668L28.4911 22.071L30.9562 20.0569L33.4656 18.1278L36.0178 16.2869L38.6109 14.5369L41.2432 12.8805L43.9128 11.32L46.6177 9.85736L49.3559 8.49425L52.1253 7.23218L54.9239 6.0723L57.7494 5.01557L60.5999 4.06274L63.473 3.2143L66.3668 2.47071L69.2789 1.83221L72.2073 1.29895L75.1497 0.87106L78.1041 0.54867L81.0682 0.331914L84.0398 0.22102L87.0166 0.216346L89.9964 0.318378L92.9767 0.527887L95.955 0.845809L98.9287 1.27344L101.895 1.8124L104.851 2.46456L107.793 3.23154L110.719 4.11485L113.626 5.11567L116.509 6.2349L119.367 7.47335L122.195 8.8314L124.991 10.3092L127.751 11.9067L130.472 13.6235L133.15 15.459L135.784 17.4123L138.369 19.4822L140.902 21.6671L143.382 23.9655L145.804 26.3751L148.166 28.8939L150.465 31.5193L152.699 34.2484L154.866 37.0783L156.963 40.0056L158.988 43.027L160.939 46.1387L162.815 49.3368L164.614 52.6172L166.335 55.9757L167.976 59.4079L169.537 62.9091L171.017 66.4748L172.414 70.1001L173.73 73.7802L174.964 77.5101L176.115 81.2849L177.185 85.0994L178.174 88.9487L179.082 92.8277L179.911 96.7315L180.661 100.655L181.334 104.594L181.932 108.542L182.455 112.496L182.907 116.451L183.289 120.402L183.602 124.345L183.85 128.276L184.035 132.191L184.159 136.086L184.225 139.957L184.235 143.802L184.192 147.616L184.1 151.398L183.96 155.144L183.776 158.851L183.55 162.518L183.286 166.143L182.986 169.723L182.653 173.257L182.29 176.743L181.9 180.181L181.487 183.568L181.053 186.904L180.601 190.189L180.136 193.42L179.661 196.598L179.179 199.723L178.694 202.793L178.21 205.81L177.73 208.773L177.258 211.683L176.798 214.54L176.353 217.345L175.927 220.1L175.524 222.805L175.149 225.462L174.804 228.072L174.494 230.638L174.223 233.161L173.995 235.644L173.814 238.088L173.684 240.497L173.61 242.873L173.594 245.221L173.641 247.542L173.752 249.842L173.93 252.123L174.175 254.391L174.49 256.649L174.874 258.902L175.327 261.155L175.848 263.411L176.436 265.675L177.089 267.951L177.804 270.243L178.577 272.556L179.406 274.892L180.286 277.256L181.211 279.651L182.177 282.078L183.177 284.541L184.206 287.042L185.257 289.581L186.323 292.161L187.396 294.781L188.47 297.441L189.536 300.142L190.587 302.882L191.615 305.659L192.611 308.472L193.569 311.318L194.479 314.194L195.334 317.096L196.128 320.02L196.851 322.963L197.498 325.918L198.062 328.881L198.536 331.845L198.914 334.807L199.192 337.758L199.363 340.693L199.425 343.605L199.373 346.488L199.204 349.336L198.915 352.14L198.506 354.896L197.974 357.597L197.319 360.237L196.541 362.809L195.642 365.308L194.623 367.729L193.485 370.067L192.233 372.319L190.869 374.479L189.398 376.544L187.824 378.513L186.153 380.383L184.389 382.152L182.541 383.821L180.613 385.389L178.615 386.857L176.554 388.228L174.438 389.505L172.276 390.692L170.077 391.793L167.85 392.814L165.603 393.763L163.347 394.645L161.089 395.468L158.839 396.242L156.604 396.975L154.392 397.677L152.21 398.356L150.066 399.023L147.965 399.688L145.912 400.36L143.913 401.049L141.97 401.764L140.088 402.515L138.267 403.309L136.51 404.154L134.816 405.057L133.186 406.024L131.618 407.062L130.112 408.176L128.666 409.371L127.277 410.652L125.943 412.021L124.661 413.482L123.427 415.037L122.237 416.687L121.087 418.433L119.972 420.274L118.887 422.21L117.827 424.239L116.787 426.357L115.761 428.561L114.744 430.846L113.729 433.208L112.712 435.64L111.686 438.135L110.647 440.687L109.589 443.285L108.507 445.923L107.395 448.59L106.25 451.277L105.067 453.973L103.841 456.668L102.57 459.35L101.25 462.009L99.8785 464.633L98.4528 467.21L96.9713 469.73L95.4326 472.18L93.8357 474.55L92.1802 476.828L90.4664 479.004L88.6946 481.068L86.8661 483.009L84.9824 484.818L83.0453 486.488L81.0574 488.009L79.0214 489.374L76.9406 490.577L74.8185 491.613L72.6589 492.475L70.4661 493.162L68.2443 493.668L65.9982 493.993L63.7324 494.136L61.4517 494.096L59.1612 493.875L56.8656 493.474L54.5698 492.896L52.2787 492.146L49.9969 491.228L47.729 490.147L45.4792 488.912L43.2516 487.528L41.05 486.007L38.8778 484.357L36.7378 482.59L34.6328 480.719L32.5646 478.755L30.5349 476.713L28.5444 474.606L26.5937 472.448L24.6825 470.253L22.8101 468.036L20.9751 465.811L19.1758 463.592L17.4097 461.392L15.674 459.223L13.9654 457.099L12.2803 455.03L10.6146 453.028L8.96398 451.1L7.324 449.256L5.68999 447.502L4.05727 445.844L2.42113 444.286L0.776861 442.832L-0.880275 441.484L-2.55492 440.243L-4.25167 439.11L-5.97491 438.086L-7.72886 437.168L-9.51752 436.355L-11.3446 435.643L-13.2134 435.029L-15.1271 434.508L-17.0882 434.075L-19.0989 433.723L-21.161 433.446L-23.2757 433.236L-25.4438 433.085L-27.6654 432.984L-29.9404 432.925L-32.2678 432.897L-34.6462 432.892L-37.0736 432.9L-39.5476 432.91L-42.0651 432.912L-44.6225 432.896L-47.2158 432.852L-49.8404 432.77L-52.4912 432.641L-55.1629 432.454L-57.8496 432.202L-60.5451 431.875L-63.2428 431.465L-65.9361 430.965L-68.6179 430.368L-71.281 429.666L-73.9182 428.856L-76.522 427.93L-79.0852 426.886L-81.6004 425.72L-84.0603 424.428L-86.4578 423.01L-88.7861 421.463L-91.0385 419.788L-93.2087 417.985L-95.2907 416.056L-97.279 414.001L-99.1683 411.824L-100.954 409.528L-102.633 407.117L-104.2 404.597L-105.653 401.971L-106.989 399.246L-108.208 396.428L-109.307 393.524L-110.287 390.54L-111.148 387.485L-111.891 384.364L-112.517 381.187L-113.028 377.961L-113.428 374.693L-113.718 371.391L-113.904 368.062L-113.988 364.714L-113.976 361.353L-113.872 357.987L-113.681 354.622L-113.409 351.263L-113.061 347.918L-112.644 344.591L-112.164 341.287L-111.628 338.011L-111.041 334.767L-110.411 331.559L-109.744 328.389L-109.046 325.26L-108.324 322.176L-107.584 319.136L-106.831 316.142L-106.07 313.195L-105.307 310.295L-104.546 307.441L-103.791 304.634L-103.047 301.872L-102.316 299.154L-101.602 296.479L-100.909 293.845L-100.239 291.251L-99.595 288.693L-98.9795 286.171L-98.3942 283.682L-97.8408 281.222L-97.3205 278.791L-96.8341 276.384L-96.3821 274L-95.9648 271.636L-95.5817 269.289L-95.2323 266.956L-94.9156 264.636L-94.6302 262.325L-94.3744 260.022L-94.1463 257.724L-93.9435 255.429L-93.7635 253.136L-93.6032 250.843L-93.4597 248.549L-93.3296 246.253L-93.2093 243.953L-93.0952 241.651L-92.9836 239.345L-92.8704 237.035L-92.7518 234.721L-92.6238 232.406L-92.4825 230.088L-92.3238 227.77L-92.1439 225.452L-91.9391 223.137L-91.7057 220.826L-91.4403 218.521L-91.1397 216.224L-90.8008 213.939L-90.4209 211.666L-89.9974 209.409L-89.528 207.171L-89.011 204.953L-88.4447 202.759L-87.8279 200.591L-87.1598 198.452L-86.4396 196.344L-85.6674 194.27L-84.8432 192.231L-83.9676 190.23L-83.0415 188.269L-82.0662 186.348L-81.0432 184.469L-79.9743 182.633L-78.8618 180.841L-77.708 179.092L-76.5157 177.387L-75.288 175.725L-74.0281 174.105L-72.7394 172.527L-71.4256 170.987L-70.0904 169.484L-68.7376 168.016L-67.3711 166.579L-65.9945 165.171L-64.6118 163.788L-63.2264 162.426L-61.8419 161.081L-60.4616 159.75L-59.0886 158.427L-57.7257 157.109L-56.3755 155.792L-55.0402 154.47L-53.7219 153.139L-52.4221 151.796L-51.1421 150.436L-49.8826 149.055L-48.6442 147.651L-47.4269 146.219L-46.2306 144.757L-45.0549 143.261L-43.8991 141.73L-42.7626 140.16L-41.6444 138.55L-40.5435 136.896L-39.4587 135.198L-38.3885 133.452L-37.3314 131.657L-36.2858 129.812L-35.2499 127.916L-34.2216 125.967L-33.1991 123.965L-32.1801 121.909L-31.1623 119.799L-30.1436 117.635L-29.1213 115.418L-28.0932 113.148L-27.0566 110.825L-26.0091 108.451L-24.948 106.028L-23.8708 103.556L-22.7749 101.039L-21.6577 98.4774L-20.5166 95.8746L-19.3492 93.2332L-18.153 90.5562L-16.9256 87.8467L-15.6647 85.1083L-14.368 82.3445L-13.0334 79.5592L-11.6589 76.7565L-10.2425 73.9405L-8.78248 71.1157L-7.27718 68.2866L-5.7251 65.4578L-4.12488 62.6339L-2.47531 59.8198L-0.775349 57.0205L0.975869 54.2407L2.77904 51.4854L4.63472 48.7596L6.54324 46.0682L8.5048 43.416L10.5194 40.8078L12.5869 38.2484L14.7069 35.7424Z"
          fill="#0F8614"
          fill-opacity="0.16"
        />
      </svg>