<svg        width="426"
        height="93"
        viewBox="0 0 426 93"
        fill="none"
        xmlns="http://www.w3.org/2000/svg"
      >
        <path
          fill-rule="evenodd"
          clip-rule="evenodd"
          d="M417.29 -176.794L416.971 -174.987L416.649 -173.187L416.325 -171.394L415.998 -169.608L415.67 -167.827L415.341 -166.052L415.012 -164.281L414.684 -162.515L414.357 -160.752L414.032 -158.993L413.711 -157.235L413.394 -155.48L413.082 -153.724L412.777 -151.969L412.479 -150.212L412.189 -148.454L411.91 -146.692L411.64 -144.925L411.382 -143.154L411.137 -141.375L410.905 -139.589L410.687 -137.793L410.484 -135.986L410.297 -134.168L410.126 -132.336L409.973 -130.488L409.836 -128.625L409.717 -126.743L409.617 -124.842L409.534 -122.921L409.47 -120.976L409.423 -119.008L409.394 -117.014L409.383 -114.993L409.388 -112.944L409.41 -110.866L409.447 -108.756L409.498 -106.615L409.562 -104.44L409.638 -102.231L409.725 -99.9868L409.82 -97.7068L409.922 -95.3902L410.03 -93.0363L410.14 -90.6449L410.252 -88.2157L410.362 -85.7485L410.469 -83.2434L410.569 -80.7005L410.661 -78.1201L410.742 -75.5024L410.809 -72.8482L410.86 -70.1578L410.893 -67.4322L410.906 -64.6721L410.894 -61.8784L410.857 -59.0525L410.791 -56.1953L410.695 -53.3083L410.565 -50.3928L410.4 -47.4505L410.197 -44.483L409.954 -41.492L409.669 -38.4794L409.339 -35.4471L408.963 -32.3971L408.538 -29.3317L408.063 -26.2529L407.535 -23.1631L406.954 -20.0645L406.317 -16.9597L405.623 -13.851L404.87 -10.741L404.057 -7.63226L403.183 -4.52731L402.247 -1.42883L401.248 1.66055L400.184 4.73813L399.055 7.80121L397.861 10.8471L396.601 13.8732L395.274 16.8767L393.881 19.8551L392.42 22.8055L390.893 25.7255L389.298 28.6124L387.637 31.4638L385.91 34.277L384.116 37.0495L382.256 39.7787L380.332 42.4623L378.343 45.0975L376.29 47.6819L374.174 50.213L371.997 52.6884L369.758 55.1058L367.459 57.4627L365.102 59.757L362.687 61.9863L360.216 64.1487L357.69 66.2421L355.112 68.2646L352.482 70.2144L349.802 72.0896L347.075 73.8887L344.301 75.6103L341.484 77.2528L338.625 78.8151L335.725 80.2961L332.788 81.6946L329.815 83.0099L326.808 84.2411L323.77 85.3877L320.703 86.4491L317.61 87.425L314.491 88.3151L311.35 89.1194L308.19 89.8378L305.011 90.4704L301.817 91.0175L298.61 91.4793L295.392 91.8564L292.165 92.1494L288.932 92.3586L285.694 92.485L282.454 92.5294L279.213 92.4925L275.974 92.3752L272.739 92.1786L269.509 91.9037L266.287 91.5515L263.074 91.123L259.873 90.6194L256.684 90.0417L253.51 89.3913L250.352 88.6694L247.212 87.8774L244.092 87.0167L240.992 86.0891L237.914 85.0962L234.86 84.0397L231.831 82.9216L228.827 81.7436L225.851 80.5078L222.902 79.2162L219.982 77.8711L217.092 76.4744L214.232 75.0283L211.403 73.5353L208.605 71.9973L205.839 70.4169L203.105 68.7963L200.403 67.1378L197.734 65.4437L195.097 63.7165L192.492 61.9584L189.92 60.1717L187.38 58.3588L184.871 56.5219L182.393 54.6632L179.945 52.785L177.528 50.8895L175.139 48.9787L172.779 47.0547L170.446 45.1195L168.14 43.1751L165.859 41.2232L163.603 39.2657L161.37 37.3044L159.159 35.3407L156.968 33.3763L154.798 31.4125L152.645 29.4507L150.51 27.4922L148.39 25.5381L146.284 23.5892L144.191 21.6463L142.11 19.71L140.04 17.7805L137.978 15.8582L135.926 13.943L133.88 12.0348L131.842 10.1334L129.809 8.23837L127.781 6.34927L125.758 4.46542L123.738 2.58615L121.723 0.710632L119.71 -1.16199L117.701 -3.03268L115.694 -4.9025L113.691 -6.77243L111.69 -8.64368L109.692 -10.5173L107.698 -12.3945L105.707 -14.2765L103.72 -16.1643L101.737 -18.0594L99.7595 -19.9626L97.7873 -21.8753L95.8212 -23.7986L93.8619 -25.7335L91.9101 -27.6811L89.9666 -29.6424L88.0321 -31.6183L86.1075 -33.6098L84.1935 -35.6176L82.291 -37.6427L80.4008 -39.6856L78.5237 -41.7471L76.6605 -43.8276L74.8118 -45.9278L72.9784 -48.0479L71.161 -50.1885L69.3602 -52.3497L67.5764 -54.5317L65.8101 -56.7348L64.0617 -58.9589L62.3314 -61.204L60.6195 -63.4702L58.926 -65.7573L57.251 -68.0651L55.5943 -70.3936L53.9562 -72.7426L52.3365 -75.1119L50.7352 -77.5016L49.1524 -79.9113L47.5881 -82.3412L46.0423 -84.7911L44.5149 -87.2609L43.0061 -89.7506L41.5158 -92.2602L40.0442 -94.7895L38.5913 -97.3386L37.1572 -99.9075L35.742 -102.496L34.346 -105.105L32.9692 -107.733L31.6119 -110.381L30.2744 -113.049L28.9569 -115.737L27.6597 -118.444L26.3833 -121.172L25.1279 -123.92L23.8941 -126.688L22.6822 -129.476L21.4929 -132.284L20.3265 -135.112L19.1838 -137.96L18.0653 -140.829L16.9717 -143.718L15.9036 -146.626L14.8619 -149.555L13.8471 -152.504L12.8601 -155.472L11.9018 -158.461L10.9728 -161.469L10.0741 -164.496L9.20658 -167.542L8.37102 -170.608L7.56833 -173.692L6.79943 -176.794L6.06528 -179.914L5.36691 -183.052L4.70541 -186.208L4.08193 -189.38L3.49766 -192.568L2.95381 -195.772L2.45164 -198.991L1.99242 -202.225L1.57743 -205.472L1.20794 -208.732L0.885246 -212.005L0.610592 -215.288L0.385217 -218.582L0.210328 -221.885L0.0870898 -225.196L0.0166244 -228.515L0 -231.84L0.0382269 -235.169L0.132251 -238.502L0.28295 -241.838L0.491126 -245.175L0.757506 -248.512L1.08273 -251.847L1.46737 -255.18L1.9119 -258.508L2.4167 -261.832L2.98208 -265.148L3.60825 -268.457L4.29535 -271.756L5.04342 -275.045L5.85243 -278.321L6.72225 -281.585L7.65271 -284.833L8.64353 -288.066L9.69438 -291.282L10.8049 -294.48L11.9746 -297.658L13.203 -300.816L14.4895 -303.952L15.8336 -307.066L17.2347 -310.155L18.692 -313.22L20.2051 -316.259L21.7731 -319.27L23.3955 -322.254L25.0716 -325.209L26.8006 -328.133L28.5819 -331.027L30.4144 -333.888L32.2974 -336.717L34.2297 -339.513L36.2103 -342.274L38.238 -345.001L40.3117 -347.693L42.4299 -350.35L44.5916 -352.97L46.7952 -355.554L49.0396 -358.102L51.3232 -360.614L53.6447 -363.089L56.0027 -365.527L58.3957 -367.929L60.8224 -370.295L63.2815 -372.625L65.7714 -374.92L68.291 -377.179L70.8388 -379.403L73.4137 -381.592L76.0143 -383.747L78.6395 -385.869L81.2881 -387.958L83.9591 -390.014L86.6515 -392.038L89.3641 -394.03L92.0962 -395.992L94.8469 -397.923L97.6154 -399.824L100.401 -401.696L103.203 -403.539L106.021 -405.354L108.854 -407.141L111.701 -408.9L114.564 -410.632L117.44 -412.338L120.33 -414.016L123.233 -415.668L126.15 -417.294L129.08 -418.893L132.023 -420.466L134.979 -422.013L137.947 -423.533L140.929 -425.027L143.924 -426.493L146.931 -427.933L149.951 -429.345L152.985 -430.729L156.031 -432.085L159.091 -433.411L162.163 -434.708L165.249 -435.975L168.348 -437.21L171.46 -438.414L174.585 -439.585L177.724 -440.722L180.876 -441.825L184.04 -442.892L187.218 -443.922L190.409 -444.915L193.612 -445.869L196.828 -446.782L200.056 -447.655L203.295 -448.485L206.547 -449.272L209.809 -450.013L213.081 -450.709L216.364 -451.356L219.657 -451.956L222.958 -452.505L226.267 -453.003L229.584 -453.449L232.907 -453.841L236.236 -454.178L239.57 -454.459L242.907 -454.683L246.248 -454.848L249.59 -454.954L252.933 -455L256.276 -454.984L259.616 -454.906L262.954 -454.765L266.287 -454.559L269.615 -454.289L272.935 -453.953L276.247 -453.551L279.549 -453.082L282.839 -452.546L286.117 -451.942L289.38 -451.269L292.626 -450.529L295.855 -449.72L299.065 -448.843L302.254 -447.897L305.421 -446.883L308.563 -445.8L311.68 -444.65L314.769 -443.433L317.83 -442.149L320.861 -440.8L323.86 -439.384L326.826 -437.905L329.757 -436.361L332.652 -434.756L335.51 -433.088L338.33 -431.361L341.109 -429.574L343.848 -427.731L346.544 -425.83L349.198 -423.876L351.807 -421.868L354.371 -419.809L356.889 -417.701L359.361 -415.544L361.785 -413.342L364.162 -411.095L366.49 -408.806L368.769 -406.477L370.999 -404.11L373.179 -401.707L375.31 -399.269L377.391 -396.8L379.422 -394.3L381.403 -391.773L383.335 -389.22L385.217 -386.643L387.05 -384.045L388.835 -381.427L390.571 -378.791L392.259 -376.139L393.9 -373.472L395.493 -370.793L397.039 -368.102L398.539 -365.401L399.992 -362.692L401.4 -359.975L402.762 -357.252L404.08 -354.523L405.353 -351.791L406.582 -349.056L407.767 -346.318L408.908 -343.579L410.007 -340.84L411.063 -338.102L412.077 -335.364L413.049 -332.629L413.98 -329.897L414.87 -327.169L415.719 -324.445L416.528 -321.725L417.298 -319.012L418.028 -316.305L418.72 -313.605L419.374 -310.912L419.99 -308.228L420.569 -305.553L421.112 -302.887L421.618 -300.232L422.09 -297.587L422.526 -294.953L422.928 -292.332L423.298 -289.722L423.634 -287.126L423.939 -284.543L424.212 -281.974L424.455 -279.42L424.669 -276.88L424.854 -274.357L425.012 -271.849L425.143 -269.358L425.248 -266.884L425.329 -264.427L425.386 -261.987L425.421 -259.566L425.434 -257.163L425.427 -254.779L425.4 -252.414L425.355 -250.068L425.293 -247.74L425.214 -245.432L425.12 -243.143L425.011 -240.873L424.889 -238.623L424.753 -236.391L424.606 -234.179L424.447 -231.985L424.278 -229.809L424.099 -227.652L423.91 -225.513L423.713 -223.391L423.508 -221.287L423.295 -219.201L423.075 -217.13L422.848 -215.077L422.615 -213.039L422.376 -211.016L422.131 -209.009L421.881 -207.017L421.626 -205.039L421.366 -203.075L421.102 -201.124L420.832 -199.186L420.559 -197.261L420.281 -195.348L419.999 -193.447L419.713 -191.557L419.424 -189.678L419.13 -187.809L418.832 -185.951L418.531 -184.102L418.226 -182.262L417.918 -180.431L417.606 -178.609L417.29 -176.794Z"
          fill="#D7B400"
          fill-opacity="0.35"
        />
      </svg>