<svg width="86" height="86" viewBox="0 0 86 86" fill="none" xmlns="http://www.w3.org/2000/svg">
<circle cx="43" cy="43" r="43" fill="#28A708"/>
<path d="M44.5545 58V28L52.4015 28.0937V35.3124L52.511 39.7187H66.0021V28H71V58H58.95V46.2813H52.511V58H44.5545Z" fill="white"/>
<path d="M26.2766 58H15V28L26.7116 28.0937C29.6967 28.0001 31.7813 28.6006 33.9755 29.8018C36.1793 30.9932 37.8775 32.7119 39.07 34.958C40.2721 37.1943 40.8731 39.875 40.8731 43C40.8731 46.125 40.2769 48.8105 39.0843 51.0566C37.8918 53.293 36.2032 55.0117 34.0185 56.2129C31.8337 57.4043 29.2531 58 26.2766 58ZM22.9566 51.0859H25.9904C27.4405 51.0859 28.6759 50.8467 29.6967 50.3682C30.7271 49.8897 31.5094 49.0645 32.0436 47.8926C32.5874 46.7207 32.8593 45.0898 32.8593 43C32.8593 40.9102 32.5827 39.2793 32.0293 38.1074C31.4855 36.9356 30.6841 36.1104 29.6252 35.6318C28.5758 35.1533 27.2878 34.9141 25.7614 34.9141H22.9566V51.0859Z" fill="white"/>
</svg>